# xmcd CD database file
#
# Track frame offsets:
#	150
#	96012
#	202702
#
# Disc length: 4310 seconds
#
# Revision: 0
# Processed by: cddbd v1.5.1PL0 Copyright (c) Steve Scherf et al.
# Submitted via: CDex 1.51
#
DISCID=1810d403
DTITLE=Andries J. Kroese - Stress
DYEAR=2003
DGENRE=New Age
TTITLE0=Introduksjon av Kroese og avspenningsteknikker
TTITLE1=Meditasjon
TTITLE2=Yogaøvelser
EXTD=YEAR: 2003
EXTT0=
EXTT1=
EXTT2=
PLAYORDER=
